<svg xmlns="http://www.w3.org/2000/svg" width="300" height="300" viewBox="0 0 300 300">
  <rect width="300" height="300" fill="#151f2e"/>
  <g transform="translate(150,150)" opacity="0.25">
    <circle r="60" fill="none" stroke="#4a90d9" stroke-width="3"/>
    <path d="M-15,-40 L-15,20 C-15,28 -25,35 -35,35 C-45,35 -50,28 -50,20 C-50,12 -45,5 -35,5 C-28,5 -22,8 -15,12 L-15,-45 L25,-55 L25,10 C25,18 15,25 5,25 C-5,25 -10,18 -10,10 C-10,2 -5,-5 5,-5 C12,-5 18,-2 25,2 L25,-55 Z" fill="#4a90d9"/>
  </g>
</svg>
